SIPNOSIS

Forrest Gump (Tom Hanks) es un chico que sufre un cierto retraso mental. A pesar de todo, gracias a su tenacidad y a su buen corazón será protagonista de acontecimientos cruciales de su país. Jenny, su gran amor desde la infancia, será la persona más importante de su vida.




DATOS TECNICOS

Format                                   : Matroska
Format version                           : Version 4 / Version 2
File size                                : 3.51 GiB
Duration                                 : 2h 22mn
Overall bit rate                         : 3 534 Kbps

Video
ID                                       : 1
Format                                   : AVC
Duration                                 : 2h 22mn
Bit rate                                 : 2 500 Kbps
Width                                    : 1 920 pixels
Height                                   : 816 pixels
Display aspect ratio                     : 2.35:1
Frame rate mode                          : Constant
Frame rate                               : 23.976 fps


Audio #1
ID                                       : 2
Format                                   : AC-3
Duration                                 : 2h 22mn
Bit rate mode                            : Constant
Bit rate                                 : 640 Kbps
Channel(s)                               : 2 channels
Channel positions                        : Front: L R
Sampling rate                            : 48.0 KHz
Bit depth                                : 16 bits
Compression mode                         : Lossy
Stream size                              : 651 MiB (18%)
Title                                    : Español Latino
Language                                 : Latin
Default                                  : Yes
Forced                                   : No

Audio #2
ID                                       : 3
Format                                   : AC-3
Format/Info                              : Audio Coding 3
Duration                                 : 2h 22mn
Bit rate mode                            : Constant
Bit rate                                 : 384 Kbps
Channel(s)                               : 2 channels
Channel positions                        : Front: L R
Sampling rate                            : 48.0 KHz
Bit depth                                : 16 bits
Compression mode                         : Lossy
Stream size                              : 390 MiB (11%)
Title                                    : Ingles
Language                                 : English
Default                                  : No
Forced                                   : No

Text
ID                                       : 4
Format                                   : PGS
        Title                         : Español Latino
Language                                 : Latin
Default                                  : Yes
Forced                                   : No